<svg width="39" height="26" viewBox="0 0 39 26" fill="none" xmlns="http://www.w3.org/2000/svg">
<path d="M30.1081 10.6457C31.1143 13.7363 35.7816 12.8526 35.7816 15.8249C35.7816 18.5397 27.4073 20.223 24.6859 20.3631L13.342 20.5742C6.07468 20.5742 0.808594 18.5924 0.808594 12.637C0.808594 6.68167 6.18114 0.232422 13.8626 0.232422C21.1177 0.232422 28.2571 4.95852 30.1081 10.6457Z" fill="#D87E35"/>
<path d="M32.9821 13.1379C32.4951 12.9339 31.9283 13.0404 31.5581 13.4171C29.6045 15.4073 23.3373 16.6124 21.0527 16.7299L9.70876 16.9407C6.38973 16.9407 3.48847 16.5271 1.31543 15.5105C2.79713 19.2488 7.40043 20.574 13.3421 20.574L24.686 20.3629C27.4071 20.2232 35.7817 18.5396 35.7817 15.8248C35.7817 14.2089 34.4026 13.7326 32.9821 13.1379Z" fill="#C67030"/>
<path d="M33.4923 0.586698C33.0912 1.13234 33.1691 1.79305 33.3038 2.24889C33.407 2.59798 33.2809 2.97354 32.9868 3.18763L27.9482 6.83851C27.3348 7.28305 27.2004 8.1421 27.6488 8.75286C28.0969 9.36332 28.9568 9.49237 29.5646 9.0401L34.5568 5.32618C34.8494 5.10971 35.2455 5.10198 35.5476 5.30477C35.9422 5.57001 36.5494 5.84238 37.1899 5.62264C38.0296 5.3351 38.3832 4.4035 38.0299 3.58965C37.7522 2.95005 37.1557 2.6066 36.5491 2.6066C36.4186 2.6066 36.3073 2.54148 36.2384 2.44574C36.1679 2.35148 36.139 2.226 36.178 2.10141C36.3597 1.52276 36.2107 0.850448 35.6835 0.394312C35.0127 -0.186713 34.0183 -0.128135 33.4923 0.586698Z" fill="#E2E2E2"/>
<path d="M14.9848 18.0506C17.0761 20.8989 21.2158 21.413 24.2309 19.1992C25.6496 18.1576 26.511 16.7384 27.0522 15.0512C27.7712 12.8101 28.8241 11.0036 30.582 9.39081C31.0269 8.98255 31.1095 8.32897 30.7718 7.86926L29.4268 6.03758C29.0893 5.57758 28.4408 5.46072 27.9184 5.76283C25.853 6.95699 23.814 7.42086 21.4605 7.43572C19.6889 7.44673 18.0766 7.84369 16.658 8.88531C13.6428 11.0988 12.8938 15.2025 14.9848 18.0506Z" fill="#E88C38"/>
<path d="M30.7719 7.86878L29.427 6.03709C29.3185 5.88931 29.1121 5.81497 28.8796 5.78286C28.2578 5.69752 27.6402 5.95354 27.2269 6.42573C25.8195 8.0338 24.458 10.1429 23.8963 11.8946C23.3551 13.5818 22.4934 15.001 21.0747 16.0427C19.0078 17.5603 16.4122 17.7955 14.3105 16.8758C14.4881 17.2841 14.7117 17.6781 14.9852 18.0504C17.0762 20.8984 21.2159 21.4128 24.2311 19.1987C25.6497 18.1574 26.5115 16.7379 27.0523 15.051C27.7713 12.8099 28.8243 11.0035 30.5822 9.39032C31.027 8.98236 31.1097 8.32878 30.7719 7.86878Z" fill="#D38231"/>
<path d="M37.8837 20.1226H1.09068C0.48825 20.1226 0 20.6108 0 21.2132C0 21.8157 0.48825 22.3039 1.09068 22.3039H3.22328C3.49506 22.3039 3.74008 22.4684 3.84266 22.7202L4.21614 23.634C4.56522 24.4886 5.39662 25.0473 6.31989 25.0473H32.6545C33.5777 25.0473 34.4091 24.4886 34.7582 23.634L35.1317 22.7202C35.2343 22.4684 35.4793 22.3039 35.7511 22.3039H37.8837C38.4861 22.3039 38.9743 21.8157 38.9743 21.2132C38.9743 20.6108 38.4861 20.1226 37.8837 20.1226Z" fill="#E2E2E2"/>
<path d="M37.8838 20.1226H34.4916C34.4916 21.3274 33.5151 22.3039 32.3102 22.3039H32.2841C32.2701 22.3039 32.2564 22.3051 32.2424 22.3054H3.24414C3.5073 22.3137 3.7425 22.4749 3.84271 22.7199L4.15404 23.4817H30.3483C30.3183 23.5397 30.2897 23.5989 30.2647 23.6604L29.9986 24.3122C29.8169 24.7568 29.3846 25.047 28.9044 25.047H32.6546C33.5778 25.047 34.4092 24.4886 34.7583 23.634L35.1318 22.7199C35.2347 22.4684 35.4794 22.3039 35.7512 22.3039H37.8838C38.4862 22.3039 38.9745 21.8157 38.9745 21.2132C38.9745 20.6108 38.4862 20.1226 37.8838 20.1226Z" fill="#D8D6D4"/>
</svg>
