<svg width="42" height="39" viewBox="0 0 42 39" fill="none" xmlns="http://www.w3.org/2000/svg">
<path d="M39.1644 30.5357H2.83549C1.26952 30.5357 0 29.3455 0 27.8771V27.3537C0 25.8854 1.26952 24.6951 2.83549 24.6951H39.1645C40.7305 24.6951 42 25.8854 42 27.3537V27.8771C41.9999 29.3455 40.7305 30.5357 39.1644 30.5357Z" fill="#E94444"/>
<path d="M41.9998 27.3532V27.8768C41.9998 29.3454 40.7309 30.5359 39.1646 30.5359H37.5054C39.0717 30.5359 40.3406 29.3454 40.3406 27.8768V27.3532C40.3406 25.8854 39.0717 24.6948 37.5054 24.6948H39.1646C40.7309 24.6948 41.9998 25.8855 41.9998 27.3532Z" fill="#D83131"/>
<path d="M39.1646 30.5356H21.0002H2.83571C2.83571 30.5356 1.58287 36.2078 8.71221 38.4393C9.93348 38.8215 11.2085 38.9995 12.4871 38.9995H21.0003H29.5134C30.792 38.9995 32.067 38.8215 33.2883 38.4393C40.4175 36.2078 39.1646 30.5356 39.1646 30.5356Z" fill="#FE9738"/>
<path d="M33.2881 38.4391C32.0665 38.8218 30.7916 39 29.5134 39H27.5889C28.868 39 30.1428 38.8218 31.3644 38.4391C38.493 36.2077 37.2401 30.5361 37.2401 30.5361H39.1647C39.1647 30.5361 40.4176 36.2077 33.2881 38.4391Z" fill="#FE860A"/>
<path d="M39.2308 25.7539C39.2308 27.0813 37.5858 27.8009 36.4921 26.9581C36.0426 26.6116 35.5116 26.3371 34.6702 26.3371C32.3902 26.3371 32.3902 28.0304 30.1102 28.0304C27.8302 28.0304 27.8302 26.3371 25.5502 26.3371C23.2702 26.3371 23.2702 28.0304 20.9903 28.0304C18.7104 28.0304 18.7104 26.3371 16.4305 26.3371C14.1504 26.3371 14.1504 28.0304 11.8704 28.0304C9.59048 28.0304 9.59048 26.3371 7.31054 26.3371C6.46948 26.3371 5.93871 26.6115 5.48923 26.9578C4.39547 27.8006 2.75049 27.0811 2.75049 25.7537V22.6123H39.2306V25.7539H39.2308Z" fill="#BBEC6C"/>
<path d="M39.2314 22.6125V25.7541C39.2314 26.9962 37.791 27.7059 36.7104 27.1015C37.1877 26.8401 37.5307 26.3608 37.5307 25.7541V22.6125H39.2314Z" fill="#A2E62E"/>
<path d="M2.76904 20.0952V22.6357H6.6799C7.49348 22.6357 8.15306 23.2541 8.15306 24.0169V31.3335C8.15306 32.3089 8.99632 33.0995 10.0365 33.0995C11.0767 33.0995 11.9199 32.3089 11.9199 31.3335V24.0169C11.9199 23.2541 12.5795 22.6357 13.393 22.6357H39.231V20.0952H2.76904Z" fill="#FEE45A"/>
<path d="M37.5308 20.0952H39.2314V22.6356H37.5308V20.0952Z" fill="#FEDF30"/>
<path d="M39.1644 20.2694H2.83549C1.26952 20.2694 0 19.0791 0 17.6108V17.0873C0 15.619 1.26952 14.4287 2.83549 14.4287H39.1645C40.7305 14.4287 42 15.619 42 17.0873V17.6108C41.9999 19.0791 40.7305 20.2694 39.1644 20.2694Z" fill="#9E5528"/>
<path d="M41.9998 17.0871V17.6107C41.9998 19.0793 40.7309 20.2691 39.1646 20.2691H37.5054C39.0717 20.2691 40.3406 19.0793 40.3406 17.6107V17.0871C40.3406 15.6193 39.0717 14.4287 37.5054 14.4287H39.1646C40.7309 14.4288 41.9998 15.6193 41.9998 17.0871Z" fill="#904D24"/>
<path d="M20.9998 0.000488281C6.83784 0.192651 2.07963 7.39555 0.508825 11.5807C-0.0294695 13.0148 1.11819 14.5156 2.73962 14.5156H20.9998H39.2598C40.8932 14.5156 42.0261 12.9997 41.4813 11.5558C39.901 7.36702 35.1336 0.192268 20.9998 0.000488281Z" fill="#FE9738"/>
<path d="M39.26 14.5157H39.0581C39.6081 13.9406 39.8345 13.1033 39.5279 12.289C37.9472 8.09945 33.1799 0.925236 19.046 0.733533C15.3896 0.782609 12.3592 1.2999 9.8501 2.1118C12.6955 0.886358 16.3383 0.0633387 21 0C35.1339 0.19247 39.9013 7.36677 41.4819 11.5555C42.0259 12.9995 40.893 14.5157 39.26 14.5157Z" fill="#FE860A"/>
<path d="M15.1544 6.08959C15.0559 6.08959 14.9561 6.06728 14.8633 6.02035C14.5653 5.86937 14.4543 5.52039 14.6154 5.24096L15.165 4.28736C15.3261 4.00793 15.6983 3.90387 15.9963 4.05486C16.2943 4.20584 16.4053 4.55482 16.2442 4.83425L15.6946 5.78785C15.5837 5.98032 15.3725 6.08959 15.1544 6.08959Z" fill="#E57917"/>
<path d="M20.9923 6.15459C20.6535 6.15459 20.3789 5.8971 20.3789 5.57949V4.49552C20.3789 4.17791 20.6535 3.92041 20.9923 3.92041C21.331 3.92041 21.6056 4.17791 21.6056 4.49552V5.57949C21.6056 5.8971 21.331 6.15459 20.9923 6.15459Z" fill="#E57917"/>
<path d="M26.8459 6.08154C26.6343 6.08154 26.4285 5.97879 26.3147 5.79483L25.7347 4.8571C25.5648 4.58235 25.6646 4.23046 25.9576 4.07111C26.2506 3.91177 26.6259 4.00532 26.7959 4.28007L27.3759 5.21781C27.5458 5.49255 27.446 5.84444 27.153 6.00379C27.0562 6.05655 26.9504 6.08154 26.8459 6.08154Z" fill="#E57917"/>
</svg>
