<svg width="55" height="52" viewBox="0 0 55 52" fill="none" xmlns="http://www.w3.org/2000/svg">
<path d="M34.0527 16.1133H17.9395C17.0488 16.1133 16.3281 15.3926 16.3281 14.502V8.05664C16.3281 7.16601 17.0488 6.44531 17.9395 6.44531H34.0527C34.9434 6.44531 35.6641 7.16601 35.6641 8.05664V14.502C35.6641 15.3926 34.9434 16.1133 34.0527 16.1133Z" fill="#FFD580"/>
<path d="M44.8596 0.472038C44.2302 -0.157346 43.2104 -0.157346 42.581 0.472038L40.4976 2.55549L38.4141 0.472038C37.7848 -0.157346 36.765 -0.157346 36.1356 0.472038C35.5062 1.10142 35.5062 2.12118 36.1356 2.75056L39.3583 5.97322C39.673 6.28796 40.0853 6.44534 40.4975 6.44534C40.9097 6.44534 41.322 6.28796 41.6367 5.97322L44.8593 2.75056C45.489 2.12107 45.489 1.10142 44.8596 0.472038Z" fill="#F24973"/>
<path d="M41.6369 5.97322L44.8595 2.75056C45.4889 2.12118 45.4889 1.10142 44.8595 0.472038C44.2301 -0.157346 43.2104 -0.157346 42.581 0.472038L40.4976 2.55549V6.44534C40.91 6.44534 41.3222 6.28796 41.6369 5.97322Z" fill="#D92C49"/>
<path d="M46.9434 16.1133H34.0527C33.1621 16.1133 32.4414 15.3926 32.4414 14.502V4.83398C32.4414 3.94335 33.1621 3.22266 34.0527 3.22266H46.9434C47.834 3.22266 48.5547 3.94335 48.5547 4.83398V14.502C48.5547 15.3926 47.834 16.1133 46.9434 16.1133Z" fill="#8AE68A"/>
<path d="M46.9434 3.22266H40.498V16.1133H46.9434C47.834 16.1133 48.5547 15.3926 48.5547 14.502V4.83398C48.5547 3.94335 47.834 3.22266 46.9434 3.22266Z" fill="#60BF80"/>
<path d="M9.6743 12.8902L7.04075 3.22266H1.61133C0.720693 3.22266 0 2.50196 0 1.61133C0 0.720693 0.720693 0 1.61133 0H8.27127C8.9983 0 9.63402 0.486191 9.82598 1.18809L13.3381 14.0787L9.6743 12.8902Z" fill="#80334D"/>
<path d="M43.7206 41.8946H17.9393C17.0518 41.8946 16.328 41.1723 16.328 40.2833C16.328 39.4509 16.9512 38.7617 17.7757 38.6798C18.66 38.5917 19.3084 37.8018 19.2171 36.9158C19.1322 36.0315 18.3391 35.4162 17.4548 35.4728C14.9748 35.7199 13.1055 37.7876 13.1055 40.2832C13.1055 42.9488 15.2739 45.1172 17.9395 45.1172H43.7207C44.6113 45.1172 45.332 44.3965 45.332 43.5059C45.332 42.6152 44.6112 41.8946 43.7206 41.8946Z" fill="#80334D"/>
<path d="M43.7207 41.8945H34.0527V45.1172H43.7207C44.6113 45.1172 45.332 44.3965 45.332 43.5059C45.332 42.6152 44.6113 41.8945 43.7207 41.8945Z" fill="#59243F"/>
<path d="M17.9392 38.6404C17.2185 38.6404 16.5765 38.1604 16.3845 37.4539L9.67236 12.8906H53.3884C53.8605 12.8906 54.3105 13.0984 54.6189 13.4603C54.9242 13.8222 55.0564 14.299 54.9777 14.7663L51.7551 34.1022C51.6355 34.8213 51.0502 35.369 50.3232 35.4414C13.4181 39.0927 18.3262 38.6404 17.9392 38.6404Z" fill="#F24973"/>
<path d="M53.3887 12.8906H34.0527V37.0539C38.2842 36.6335 43.6037 36.1062 50.3234 35.4414C51.0504 35.369 51.6358 34.8214 51.7553 34.1022L54.978 14.7663C55.0566 14.2989 54.9245 13.8222 54.6192 13.4603C54.3108 13.0984 53.8607 12.8906 53.3887 12.8906Z" fill="#D92C49"/>
<path d="M43.7207 51.5625C41.0551 51.5625 38.8867 49.3941 38.8867 46.7285C38.8867 44.0629 41.0551 41.8945 43.7207 41.8945C46.3863 41.8945 48.5547 44.0629 48.5547 46.7285C48.5547 49.3941 46.3863 51.5625 43.7207 51.5625Z" fill="#59243F"/>
<path d="M43.7207 48.3398C44.6106 48.3398 45.332 47.6184 45.332 46.7285C45.332 45.8386 44.6106 45.1172 43.7207 45.1172C42.8308 45.1172 42.1094 45.8386 42.1094 46.7285C42.1094 47.6184 42.8308 48.3398 43.7207 48.3398Z" fill="#D9E5FF"/>
<path d="M21.1621 51.5625C18.4965 51.5625 16.3281 49.3941 16.3281 46.7285C16.3281 44.0629 18.4965 41.8945 21.1621 41.8945C23.8277 41.8945 25.9961 44.0629 25.9961 46.7285C25.9961 49.3941 23.8277 51.5625 21.1621 51.5625Z" fill="#80334D"/>
<path d="M21.1621 48.3398C22.052 48.3398 22.7734 47.6184 22.7734 46.7285C22.7734 45.8386 22.052 45.1172 21.1621 45.1172C20.2722 45.1172 19.5508 45.8386 19.5508 46.7285C19.5508 47.6184 20.2722 48.3398 21.1621 48.3398Z" fill="#ECF2FF"/>
<path d="M43.7207 29.0039C42.8301 29.0039 42.1094 28.2832 42.1094 27.3926V20.9473C42.1094 20.0566 42.8301 19.3359 43.7207 19.3359C44.6113 19.3359 45.332 20.0566 45.332 20.9473V27.3926C45.332 28.2832 44.6113 29.0039 43.7207 29.0039Z" fill="#D9E5FF"/>
<path d="M24.3848 29.0039C23.4941 29.0039 22.7734 28.2832 22.7734 27.3926V20.9473C22.7734 20.0566 23.4941 19.3359 24.3848 19.3359C25.2754 19.3359 25.9961 20.0566 25.9961 20.9473V27.3926C25.9961 28.2832 25.2754 29.0039 24.3848 29.0039Z" fill="#ECF2FF"/>
<path d="M34.0527 29.0039C33.1621 29.0039 32.4414 28.2832 32.4414 27.3926V20.9473C32.4414 20.0566 33.1621 19.3359 34.0527 19.3359C34.9434 19.3359 35.6641 20.0566 35.6641 20.9473V27.3926C35.6641 28.2832 34.9434 29.0039 34.0527 29.0039Z" fill="#ECF2FF"/>
<path d="M35.6641 27.3926V20.9473C35.6641 20.0566 34.9434 19.3359 34.0527 19.3359V29.0039C34.9434 29.0039 35.6641 28.2832 35.6641 27.3926Z" fill="#D9E5FF"/>
</svg>
