<svg width="42" height="42" viewBox="0 0 42 42" fill="none" xmlns="http://www.w3.org/2000/svg">
<path d="M36.1249 13.6467C35.9359 13.6467 35.7545 13.5716 35.6208 13.4379L28.5623 6.37941C28.4286 6.24571 28.3535 6.06437 28.3535 5.8753C28.3535 5.68622 28.4286 5.50489 28.5623 5.37119L33.0999 0.833926C33.6352 0.299906 34.3604 0 35.1165 0C35.8726 0 36.5978 0.299906 37.133 0.833926L41.1662 4.86711C41.7003 5.40234 42.0002 6.12757 42.0002 6.88367C42.0002 7.63977 41.7003 8.36499 41.1662 8.90022L36.6287 13.4379C36.4951 13.5715 36.3139 13.6466 36.1249 13.6467ZM30.0747 5.87526L36.1249 11.9255L40.158 7.89214C40.4249 7.62444 40.5749 7.2618 40.5749 6.88374C40.5749 6.50568 40.4249 6.14304 40.158 5.87533L36.1249 1.84222C35.8572 1.57536 35.4946 1.42551 35.1166 1.42551C34.7386 1.42551 34.376 1.57536 34.1082 1.84222L30.0747 5.87526Z" fill="#373737"/>
<path d="M6.88388 41.9999C6.50938 42.0007 6.13842 41.9274 5.79232 41.7843C5.44623 41.6412 5.13182 41.4311 4.86715 41.1662L0.833962 37.1331C0.29992 36.5978 0 35.8726 0 35.1165C0 34.3604 0.29992 33.6351 0.833962 33.0999L5.37151 28.5623C5.50777 28.4336 5.68814 28.3618 5.87562 28.3618C6.0631 28.3618 6.24347 28.4336 6.37973 28.5623L13.4382 35.6208C13.5719 35.7545 13.647 35.9359 13.647 36.1249C13.647 36.314 13.5719 36.4953 13.4382 36.629L8.90062 41.1662C8.63596 41.4312 8.32155 41.6413 7.97545 41.7844C7.62935 41.9274 7.25839 42.0007 6.88388 41.9999ZM5.8753 30.0746L1.84226 34.1081C1.57531 34.3758 1.4254 34.7384 1.4254 35.1165C1.4254 35.4945 1.57531 35.8571 1.84226 36.1248L5.8753 40.1578C6.14304 40.4247 6.50564 40.5745 6.88367 40.5745C7.26169 40.5745 7.6243 40.4247 7.89203 40.1578L11.9256 36.1247L5.8753 30.0746Z" fill="#373737"/>
<path d="M21.0001 41.6766C32.4194 41.6766 41.6766 32.4194 41.6766 21.0001C41.6766 9.58088 32.4194 0.32373 21.0001 0.32373C9.58088 0.32373 0.32373 9.58088 0.32373 21.0001C0.32373 32.4194 9.58088 41.6766 21.0001 41.6766Z" fill="#4D4D4D"/>
<path d="M21 40.2504C31.6317 40.2504 40.2504 31.6317 40.2504 21C40.2504 10.3682 31.6317 1.74951 21 1.74951C10.3682 1.74951 1.74951 10.3682 1.74951 21C1.74951 31.6317 10.3682 40.2504 21 40.2504Z" fill="#373737"/>
<path d="M33.0999 35.6203L23.521 26.0414L26.0414 23.521L37.6373 35.1162L33.0999 35.6203Z" fill="#64964B"/>
<path d="M30.5789 38.1415L19.5234 27.086L22.0438 24.5649L35.1163 37.6374L30.5789 38.1415Z" fill="#8CD25F"/>
<path d="M35.6204 33.1L26.0415 23.5211L28.5626 21L40.1578 32.5959L35.6204 33.1Z" fill="#8CD25F"/>
<path d="M14.583 6.02743V11.7313C14.583 12.5188 15.2214 13.1572 16.009 13.1572H21.7128C22.5003 13.1572 23.1388 12.5188 23.1388 11.7313V6.02743C23.1388 5.23989 22.5003 4.60147 21.7128 4.60147H16.009C15.2214 4.60147 14.583 5.23989 14.583 6.02743Z" fill="#FCE5BB"/>
<path d="M14.583 11.7313V7.10738H20.6328V13.1572H16.009C15.6308 13.1572 15.2681 13.007 15.0007 12.7396C14.7332 12.4722 14.583 12.1095 14.583 11.7313Z" fill="#FEF4E3"/>
<path d="M28.6459 19.1201C27.3548 19.2507 26.0538 19.2507 24.7627 19.1201C23.9433 19.0374 23.1684 18.7077 22.5407 18.1746C21.9129 17.6416 21.462 16.9303 21.2477 16.1351C20.5737 13.721 20.5737 11.1684 21.2477 8.75424C21.462 7.95908 21.9129 7.24783 22.5407 6.71477C23.1684 6.18171 23.9433 5.852 24.7627 5.76935C26.0538 5.63873 27.3548 5.63873 28.6459 5.76935C29.4654 5.85196 30.2404 6.18166 30.8682 6.71474C31.496 7.24782 31.9469 7.9591 32.1613 8.75431C32.8353 11.1684 32.8353 13.721 32.1613 16.1351C31.9469 16.9304 31.496 17.6416 30.8682 18.1747C30.2404 18.7078 29.4654 19.0375 28.6459 19.1201Z" fill="#CF8C58"/>
<path d="M32.7641 12.8007H30.7686C29.9491 12.8026 29.1398 12.6193 28.4012 12.2643C27.6626 11.9093 27.0138 11.392 26.5033 10.7509C26.1263 10.277 25.647 9.89454 25.1013 9.63216C24.5555 9.36978 23.9575 9.23427 23.3519 9.23579H21.3564V7.80983H23.3519C24.1714 7.8079 24.9807 7.99127 25.7194 8.34623C26.458 8.7012 27.1068 9.21857 27.6173 9.85965C27.9942 10.3335 28.4736 10.716 29.0193 10.9784C29.5651 11.2407 30.1631 11.3762 30.7686 11.3747H32.7641V12.8007Z" fill="#D9A379"/>
<path d="M32.0512 17.0788H30.0557C29.2363 17.0807 28.4269 16.8973 27.6883 16.5424C26.9497 16.1874 26.3009 15.67 25.7904 15.0289C25.4134 14.5551 24.9341 14.1726 24.3884 13.9102C23.8426 13.6479 23.2446 13.5123 22.639 13.5139H20.6436V12.0879H22.639C23.4585 12.086 24.2678 12.2693 25.0065 12.6243C25.7451 12.9793 26.3939 13.4966 26.9044 14.1377C27.2814 14.6116 27.7607 14.9941 28.3064 15.2564C28.8522 15.5188 29.4502 15.6543 30.0557 15.6528H32.0512V17.0788Z" fill="#D9A379"/>
<path d="M26.7046 19.9306C26.0321 19.9307 25.3601 19.897 24.691 19.8296C23.7284 19.7299 22.8185 19.3413 22.0809 18.7148C21.3433 18.0883 20.8126 17.2533 20.5583 16.3196C19.8516 13.7848 19.8516 11.105 20.5583 8.57015C20.8126 7.63646 21.3434 6.8015 22.0809 6.17497C22.8184 5.54843 23.7282 5.15962 24.6907 5.05958C26.0295 4.92447 27.3784 4.92447 28.7172 5.05958C29.6799 5.15929 30.5899 5.54798 31.3275 6.17455C32.0652 6.80113 32.596 7.63626 32.8501 8.57015C33.5568 11.1047 33.5568 13.7843 32.8501 16.3189C32.5963 17.2528 32.0656 18.0881 31.328 18.7147C30.5905 19.3413 29.6805 19.73 28.7178 19.8295C28.0488 19.897 27.3769 19.9307 26.7046 19.9306ZM26.7046 6.38466C26.08 6.3846 25.4558 6.41596 24.8344 6.47863C24.1595 6.54842 23.5215 6.8207 23.0042 7.25969C22.4869 7.69869 22.1145 8.28388 21.9358 8.93841C21.2966 11.2323 21.2966 13.6573 21.9358 15.9512C22.1145 16.6057 22.4869 17.1908 23.0042 17.6297C23.5216 18.0686 24.1595 18.3408 24.8344 18.4104C26.0778 18.5358 27.3307 18.5358 28.5741 18.4104C29.249 18.341 29.8871 18.0689 30.4045 17.63C30.9218 17.191 31.2942 16.6058 31.4726 15.9512C32.1118 13.6571 32.1118 11.2318 31.4726 8.9377C31.2941 8.28318 30.9216 7.698 30.4043 7.25909C29.887 6.82017 29.249 6.54805 28.5741 6.47849C27.9529 6.41585 27.3289 6.38451 26.7046 6.38459V6.38466Z" fill="#C36F2E"/>
<path d="M11.4333 7.40354L7.40073 11.4362C6.84394 11.993 6.84394 12.8957 7.40073 13.4525L11.4333 17.4851C11.9901 18.0419 12.8928 18.0419 13.4496 17.4851L17.4822 13.4525C18.039 12.8957 18.039 11.993 17.4822 11.4362L13.4496 7.40354C12.8928 6.84675 11.9901 6.84675 11.4333 7.40354Z" fill="#FCE5BB"/>
<path d="M7.40073 11.4362L10.6698 8.16709L14.9471 12.4443L10.6698 16.7216L7.40073 13.4525C7.13335 13.1851 6.98314 12.8225 6.98314 12.4443C6.98314 12.0662 7.13335 11.7036 7.40073 11.4362Z" fill="#FEF4E3"/>
<path d="M10.305 34.5466H21.7127C22.5002 34.5466 23.1387 33.9082 23.1387 33.1207V28.8428C23.1387 28.0553 22.5002 27.4168 21.7127 27.4168H10.305C9.5175 27.4168 8.87908 28.0553 8.87908 28.8428V33.1207C8.87908 33.9082 9.5175 34.5466 10.305 34.5466Z" fill="#FA5046"/>
<path d="M14.9631 27.8031C15.5725 28.7514 15.8966 29.8548 15.8966 30.982C15.8966 32.1091 15.5725 33.2126 14.9631 34.1608L14.7144 34.5468H16.373C16.9838 33.4579 17.3046 32.2304 17.3046 30.9819C17.3046 29.7334 16.9838 28.5059 16.373 27.417H14.7146L14.9631 27.8031Z" fill="#FF695F"/>
<path d="M10.6853 27.8029C11.2947 28.7511 11.6187 29.8545 11.6187 30.9817C11.6187 32.1089 11.2947 33.2123 10.6853 34.1605L10.4365 34.5465H12.0951C12.7059 33.4577 13.0267 32.2301 13.0267 30.9816C13.0267 29.7332 12.7059 28.5056 12.0951 27.4167H10.4367L10.6853 27.8029Z" fill="#FF695F"/>
<path d="M19.2409 27.8031C19.8504 28.7514 20.1744 29.8548 20.1744 30.982C20.1744 32.1091 19.8504 33.2126 19.2409 34.1608L18.9922 34.5468H20.6508C21.2616 33.4579 21.5824 32.2304 21.5824 30.9819C21.5824 29.7334 21.2616 28.5059 20.6508 27.417H18.9924L19.2409 27.8031Z" fill="#FF695F"/>
<path d="M7.45347 28.4863H18.8611C19.6487 28.4863 20.2871 27.8479 20.2871 27.0604V22.7825C20.2871 21.995 19.6487 21.3565 18.8611 21.3565H7.45347C6.66594 21.3565 6.02751 21.995 6.02751 22.7825V27.0604C6.02751 27.8479 6.66594 28.4863 7.45347 28.4863Z" fill="#FF8F82"/>
<path d="M12.1111 21.7425C12.7205 22.6907 13.0445 23.7942 13.0445 24.9213C13.0445 26.0485 12.7205 27.1519 12.1111 28.1002L11.8623 28.4862H13.5209C14.1317 27.3974 14.4525 26.1698 14.4525 24.9213C14.4525 23.6729 14.1317 22.4453 13.5209 21.3564H11.8625L12.1111 21.7425Z" fill="#FF695F"/>
<path d="M7.83323 21.7425C8.44266 22.6907 8.76667 23.7942 8.76667 24.9213C8.76667 26.0485 8.44266 27.1519 7.83323 28.1002L7.58447 28.4862H9.24308C9.85388 27.3974 10.1747 26.1698 10.1747 24.9213C10.1747 23.6729 9.85388 22.4453 9.24308 21.3564H7.58469L7.83323 21.7425Z" fill="#FF695F"/>
<path d="M16.3889 21.7425C16.9983 22.6907 17.3223 23.7942 17.3223 24.9213C17.3223 26.0485 16.9983 27.1519 16.3889 28.1002L16.1401 28.4862H17.7987C18.4095 27.3974 18.7303 26.1698 18.7303 24.9213C18.7303 23.6729 18.4095 22.4453 17.7987 21.3564H16.1404L16.3889 21.7425Z" fill="#FF695F"/>
<path d="M6.02769 22.4258H17.4354C18.2229 22.4258 18.8613 21.7874 18.8613 20.9998V16.7219C18.8613 15.9344 18.2229 15.296 17.4354 15.296H6.02769C5.24016 15.296 4.60173 15.9344 4.60173 16.7219V20.9998C4.60173 21.7874 5.24016 22.4258 6.02769 22.4258Z" fill="#FA5046"/>
<path d="M10.6853 15.6823C11.2947 16.6305 11.6187 17.7339 11.6187 18.8611C11.6187 19.9883 11.2947 21.0917 10.6853 22.0399L10.4365 22.4259H12.0951C12.7059 21.3371 13.0267 20.1095 13.0267 18.861C13.0267 17.6126 12.7059 16.385 12.0951 15.2961H10.4367L10.6853 15.6823Z" fill="#FF695F"/>
<path d="M6.40696 15.6823C7.01639 16.6305 7.3404 17.7339 7.3404 18.8611C7.3404 19.9883 7.01639 21.0917 6.40696 22.0399L6.1582 22.4259H7.81681C8.42761 21.3371 8.7484 20.1095 8.7484 18.861C8.7484 17.6126 8.42761 16.385 7.81681 15.2961H6.15842L6.40696 15.6823Z" fill="#FF695F"/>
<path d="M14.9631 15.6823C15.5725 16.6305 15.8966 17.7339 15.8966 18.8611C15.8966 19.9883 15.5725 21.0917 14.9631 22.0399L14.7144 22.4259H16.373C16.9838 21.3371 17.3046 20.1095 17.3046 18.861C17.3046 17.6126 16.9838 16.385 16.373 15.2961H14.7146L14.9631 15.6823Z" fill="#FF695F"/>
<path d="M26.974 18.4921C26.9256 17.5995 26.6904 16.7269 26.2836 15.9309C25.8769 15.1348 25.3075 14.433 24.6125 13.8708C23.6417 13.0829 22.4618 12.596 21.218 12.4699C19.9741 12.3439 18.7205 12.5842 17.6115 13.1613C16.5024 13.7384 15.5862 14.6271 14.9757 15.7181C14.3651 16.8091 14.0868 18.0548 14.175 19.3019C14.256 20.149 14.0019 20.994 13.4673 21.656C12.8445 22.3843 12.485 23.3011 12.4468 24.2586C12.4085 25.2161 12.6936 26.1587 13.2563 26.9344C13.8189 27.7101 14.6263 28.2739 15.5483 28.5349C16.4704 28.7959 17.4535 28.7389 18.3392 28.3731C18.8669 28.1538 19.4408 28.069 20.0094 28.1263C20.578 28.1835 21.1234 28.381 21.5968 28.7011C22.6015 29.3679 23.8098 29.6578 25.0077 29.5194C25.9665 29.4101 26.8751 29.0325 27.6291 28.4301C28.3831 27.8278 28.952 27.025 29.2704 26.1139C29.5888 25.2028 29.6438 24.2205 29.4291 23.2796C29.2144 22.3386 28.7388 21.4774 28.0567 20.7946C27.4238 20.1872 27.0381 19.367 26.974 18.4921Z" fill="#F5FCFC"/>
<path d="M21 25.2779C23.3627 25.2779 25.2779 23.3627 25.2779 21C25.2779 18.6374 23.3627 16.7222 21 16.7222C18.6374 16.7222 16.7222 18.6374 16.7222 21C16.7222 23.3627 18.6374 25.2779 21 25.2779Z" fill="#FFCB1E"/>
<path d="M19.5739 21.713C20.3614 21.713 20.9999 21.0746 20.9999 20.287C20.9999 19.4995 20.3614 18.8611 19.5739 18.8611C18.7864 18.8611 18.1479 19.4995 18.1479 20.287C18.1479 21.0746 18.7864 21.713 19.5739 21.713Z" fill="#FFE078"/>
<path d="M34.3495 27.6758C33.0584 27.8063 31.7574 27.8063 30.4663 27.6758C29.6469 27.5931 28.872 27.2634 28.2443 26.7303C27.6166 26.1972 27.1656 25.486 26.9513 24.6908C26.2773 22.2767 26.2773 19.724 26.9513 17.3099C27.1656 16.5147 27.6165 15.8035 28.2443 15.2704C28.872 14.7374 29.6469 14.4077 30.4663 14.325C31.7574 14.1944 33.0584 14.1944 34.3495 14.325C35.169 14.4076 35.944 14.7373 36.5718 15.2704C37.1996 15.8035 37.6505 16.5148 37.8649 17.31C38.5389 19.7241 38.5389 22.2767 37.8649 24.6908C37.6505 25.486 37.1996 26.1973 36.5718 26.7304C35.944 27.2635 35.169 27.5932 34.3495 27.6758Z" fill="#CF8C58"/>
<path d="M38.4682 21.3566H36.4727C35.6532 21.3585 34.8439 21.1752 34.1053 20.8202C33.3667 20.4652 32.7179 19.9479 32.2074 19.3068C31.8304 18.8329 31.3511 18.4504 30.8054 18.1881C30.2596 17.9257 29.6616 17.7902 29.056 17.7917H27.0605V16.3657H29.056C29.8755 16.3638 30.6848 16.5472 31.4235 16.9021C32.1621 17.2571 32.8109 17.7745 33.3214 18.4156C33.6983 18.8894 34.1777 19.2719 34.7234 19.5343C35.2692 19.7966 35.8672 19.9322 36.4727 19.9306H38.4682V21.3566Z" fill="#D9A379"/>
<path d="M37.7553 25.6344H35.7598C34.9404 25.6364 34.131 25.453 33.3924 25.098C32.6538 24.7431 32.005 24.2257 31.4945 23.5846C31.1175 23.1107 30.6382 22.7283 30.0925 22.4659C29.5467 22.2035 28.9487 22.068 28.3431 22.0695H26.3477V20.6436H28.3431C29.1626 20.6416 29.9719 20.825 30.7106 21.18C31.4492 21.5349 32.098 22.0523 32.6085 22.6934C32.9855 23.1673 33.4648 23.5497 34.0105 23.8121C34.5563 24.0745 35.1543 24.21 35.7598 24.2085H37.7553V25.6344Z" fill="#D9A379"/>
<path d="M32.4082 28.4862C31.7357 28.4864 31.0637 28.4527 30.3946 28.3853C29.432 28.2855 28.5221 27.8969 27.7846 27.2705C27.047 26.644 26.5162 25.809 26.262 24.8753C25.5553 22.3405 25.5553 19.6606 26.262 17.1258C26.5163 16.1921 27.047 15.3572 27.7845 14.7306C28.522 14.1041 29.4318 13.7153 30.3943 13.6152C31.7331 13.4801 33.082 13.4801 34.4208 13.6152C35.3835 13.715 36.2935 14.1036 37.0312 14.7302C37.7688 15.3568 38.2996 16.1919 38.5537 17.1258C39.2604 19.6604 39.2604 22.34 38.5537 24.8746C38.2999 25.8085 37.7692 26.6437 37.0317 27.2703C36.2941 27.897 35.3841 28.2856 34.4214 28.3852C33.7524 28.4527 33.0805 28.4864 32.4082 28.4862ZM32.4082 14.9403C31.7836 14.9403 31.1594 14.9716 30.538 15.0343C29.8631 15.1041 29.2251 15.3764 28.7078 15.8154C28.1905 16.2544 27.8181 16.8395 27.6394 17.4941C27.0003 19.788 27.0003 22.213 27.6394 24.5069C27.8181 25.1613 28.1905 25.7465 28.7079 26.1854C29.2252 26.6243 29.8632 26.8964 30.538 26.9661C31.7814 27.0914 33.0343 27.0914 34.2777 26.9661C34.9526 26.8967 35.5907 26.6246 36.1081 26.1856C36.6254 25.7467 36.9978 25.1615 37.1763 24.5069C37.8154 22.2127 37.8154 19.7875 37.1763 17.4934C36.9977 16.8388 36.6253 16.2537 36.1079 15.8148C35.5906 15.3758 34.9526 15.1037 34.2777 15.0341C33.6565 14.9715 33.0326 14.9402 32.4082 14.9403V14.9403Z" fill="#C36F2E"/>
<path d="M13.6113 34.7876C13.4408 34.9563 13.3157 35.1655 13.2478 35.3955C13.1798 35.6256 13.1711 35.8691 13.2226 36.1034C13.274 36.3377 13.3838 36.5552 13.5419 36.7357C13.7 36.9162 13.9011 37.0537 14.1266 37.1355C14.9487 37.4199 15.8342 37.4672 16.6819 37.2721C17.5297 37.077 18.3054 36.6474 18.9205 36.0323C19.5356 35.4172 19.9652 34.6415 20.1603 33.7937C20.3554 32.946 20.3081 32.0605 20.0237 31.2384C19.9419 31.0129 19.8043 30.8118 19.6239 30.6537C19.4434 30.4957 19.2259 30.3858 18.9916 30.3344C18.7573 30.2829 18.5138 30.2916 18.2837 30.3596C18.0536 30.4275 17.8445 30.5526 17.6757 30.7231L16.9039 31.4951L15.8956 30.4867C15.7619 30.3529 15.5805 30.2778 15.3914 30.2778C15.2023 30.2778 15.021 30.3529 14.8873 30.4867L13.3748 31.9991C13.2411 32.1328 13.166 32.3142 13.166 32.5032C13.166 32.6923 13.2411 32.8737 13.3748 33.0074L14.3833 34.0157L13.6113 34.7876Z" fill="#FEF4E3"/>
<path d="M23.1388 38.8245C25.8952 38.8245 28.1297 36.59 28.1297 33.8336C28.1297 31.0773 25.8952 28.8428 23.1388 28.8428C20.3824 28.8428 18.1479 31.0773 18.1479 33.8336C18.1479 36.59 20.3824 38.8245 23.1388 38.8245Z" fill="#764C2C"/>
<path d="M23.9882 34.683C24.8177 34.5783 25.613 34.288 26.3148 33.8336C25.6129 33.3793 24.8177 33.089 23.9882 32.9844C23.8835 32.1549 23.5932 31.3596 23.1389 30.6577C22.6845 31.3596 22.3942 32.1549 22.2896 32.9845C21.46 33.0891 20.6648 33.3793 19.9629 33.8336C20.6648 34.288 21.46 34.5783 22.2896 34.6829C22.3942 35.5125 22.6845 36.3078 23.1389 37.0097C23.5932 36.3078 23.8835 35.5125 23.9882 34.683Z" fill="#FFE078"/>
</svg>
