<svg width="55" height="55" viewBox="0 0 55 55" fill="none" xmlns="http://www.w3.org/2000/svg">
<path d="M51.6444 15.6284L41.7246 5.6897V45.5171H55.0003V23.6981C55.0003 20.6685 53.7921 17.7641 51.6444 15.6284Z" fill="#FFB782"/>
<path d="M7.75364 38.26L0.254436 18.792C-0.498242 16.8377 0.475449 14.6424 2.43082 13.8894L37.827 0.255168C39.7813 -0.49751 41.9766 0.476182 42.7292 2.43155L50.2284 21.8996C50.9811 23.8539 50.0074 26.0491 48.0521 26.8021L12.6569 40.4364C10.7016 41.189 8.50741 40.2143 7.75364 38.26Z" fill="#DE4C3C"/>
<path d="M45.4319 9.44482L2.99121 25.8956L5.8172 33.2315L48.2597 16.7883L45.4319 9.44482Z" fill="#7A4930"/>
<path d="M0.000488281 24.6551V3.79315C0.000488281 1.69843 1.69891 0 3.79364 0H41.7244C43.8191 0 45.5176 1.69843 45.5176 3.79315V24.6551C45.5176 26.7498 43.8191 28.4483 41.7244 28.4483H3.79364C1.69891 28.4483 0.000488281 26.7498 0.000488281 24.6551Z" fill="#4398D1"/>
<path d="M41.7245 0H37.6944L9.24609 28.4483H41.7245C43.8192 28.4483 45.5176 26.7498 45.5176 24.6551V3.79315C45.5176 1.69843 43.8192 0 41.7245 0Z" fill="#3E8CC7"/>
<path d="M3.79346 15.1724H7.58661V17.0689H3.79346V15.1724Z" fill="#5EB3D1"/>
<path d="M3.79346 20.8621H7.58661V22.7586H3.79346V20.8621Z" fill="#5EB3D1"/>
<path d="M20.8623 20.8621H24.6555V22.7586H20.8623V20.8621Z" fill="#5EB3D1"/>
<path d="M9.4834 15.1724H13.2762V17.0689H9.4834V15.1724Z" fill="#5EB3D1"/>
<path d="M15.1729 15.1724H18.966V17.0689H15.1729V15.1724Z" fill="#5EB3D1"/>
<path d="M20.8623 15.1724H24.6555V17.0689H20.8623V15.1724Z" fill="#5EB3D1"/>
<path d="M38.8794 3.79321H40.776V6.63808H38.8794V3.79321Z" fill="#5EB3D1"/>
<path d="M35.0864 3.79321H36.983V6.63808H35.0864V3.79321Z" fill="#5EB3D1"/>
<path d="M31.293 3.79321H33.1895V6.63808H31.293V3.79321Z" fill="#5EB3D1"/>
<path d="M27.5005 3.79321H29.3967V6.63808H27.5005V3.79321Z" fill="#5EB3D1"/>
<path d="M37.9312 45.5171H55V54.9996H37.9312V45.5171Z" fill="#88B337"/>
<path d="M35.1482 17.1305C33.5398 15.5279 30.937 15.5326 29.3344 17.141C27.7847 18.6961 27.731 21.1948 29.2121 22.8155L36.9831 31.2931C34.6474 35.381 34.7472 40.4218 37.2418 44.4142L37.9314 45.5171H50.2587V32.2414L35.1482 17.1305Z" fill="#FFB782"/>
<path d="M40.7759 48.3621H42.6725V50.2586H40.7759V48.3621Z" fill="#6B962A"/>
<path d="M3.79346 9.86218V5.31055C3.79346 4.47222 4.47246 3.79321 5.31079 3.79321H9.86243C10.7008 3.79321 11.3794 4.47222 11.3794 5.31055V9.86218C11.3794 10.7005 10.7008 11.3795 9.86243 11.3795H5.31079C4.47246 11.3795 3.79346 10.7005 3.79346 9.86218Z" fill="#FDB62F"/>
<path d="M3.79346 6.63794H6.63832V8.53451H3.79346V6.63794Z" fill="#FD7B2F"/>
<path d="M8.53516 6.63794H11.3797V8.53451H8.53516V6.63794Z" fill="#FD7B2F"/>
<path d="M49.3102 32.2415C49.0591 32.2415 48.8174 32.1417 48.6399 31.9635L44.8468 28.1704C44.4828 27.794 44.4933 27.1938 44.8707 26.8294C45.2387 26.4748 45.8208 26.4748 46.1877 26.8294L49.9809 30.6226C50.3507 30.9934 50.3507 31.5937 49.9809 31.9635C49.8023 32.1417 49.5617 32.2415 49.3102 32.2415Z" fill="#F2A46F"/>
</svg>
