<svg width="42" height="31" viewBox="0 0 42 31" fill="none" xmlns="http://www.w3.org/2000/svg">
<path fill-rule="evenodd" clip-rule="evenodd" d="M9.4808 17.545L10.2354 14.5145L9.4808 12.1499H6.51019L5.99512 14.8475L6.51019 17.545H9.4808Z" fill="#EFF6FF"/>
<path fill-rule="evenodd" clip-rule="evenodd" d="M6.51021 12.15V17.545L2.46611 22.5657C2.40796 22.6379 2.30233 22.6502 2.22991 22.5924C1.73579 22.1985 0.0382071 20.6462 0.000685832 17.8915C-0.00522969 17.4765 0.0268831 17.0346 0.10632 16.5639C0.196743 16.0281 0.349702 15.456 0.578717 14.8475C0.281251 14.0582 0.113081 13.3298 0.0420945 12.6621C-0.00945506 12.1889 -0.0111452 11.7461 0.0235028 11.3345C0.232321 8.87291 1.7636 7.47465 2.2294 7.10299C2.30225 7.04493 2.4078 7.05685 2.46619 7.12936L6.51021 12.15Z" fill="#A0DDFA"/>
<path fill-rule="evenodd" clip-rule="evenodd" d="M2.46631 22.5656L6.51033 17.5449V14.8066C6.19174 15.2762 0.78478 20.8821 0.993175 21.2032C1.47115 21.9414 1.99104 22.4023 2.22986 22.5926C2.3142 22.6598 2.46631 22.5656 2.46631 22.5656Z" fill="#75CEF9"/>
<path fill-rule="evenodd" clip-rule="evenodd" d="M32.3856 28.6848C34.7358 27.1108 35.488 23.8838 35.337 22.3984C33.9516 22.3984 32.4007 22.3984 32.4007 22.3984C32.3289 22.4296 30.7326 24.5929 30.6607 24.6217C30.6559 24.624 30.6535 24.624 30.6487 24.6265C29.597 27.0821 28.2842 27.9733 26.1497 29.7628C25.3232 30.4552 30.2439 30.1222 32.3856 28.6848Z" fill="#A0DDFA"/>
<path fill-rule="evenodd" clip-rule="evenodd" d="M9.48054 17.5449L6.99382 23.2755C4.14305 29.8445 16.1596 29.442 26.88 25.9922C20.9005 25.0963 15.2852 23.0527 9.48054 17.5449Z" fill="#A0DDFA"/>
<path fill-rule="evenodd" clip-rule="evenodd" d="M27.7115 2.52391C16.5216 -1.59194 3.60183 -0.839655 6.70181 6.00722L9.48076 12.1498C11.8428 3.808 19.5712 2.75149 27.7115 2.52391Z" fill="#A0DDFA"/>
<path fill-rule="evenodd" clip-rule="evenodd" d="M14.5238 23.7618C16.8164 13.6424 13.1295 13.7166 13.8362 4.27271C10.6524 6.58458 9.8882 10.1063 9.48096 12.1498V17.5449C10.1685 19.0327 11.3807 21.7782 14.5238 23.7618Z" fill="#FDE588"/>
<path fill-rule="evenodd" clip-rule="evenodd" d="M28.0472 25.6018C29.3001 20.3671 29.3983 13.1249 28.4568 9.01634C27.513 4.90531 27.5776 4.36624 28.1191 2.67727C27.9825 2.62699 27.8484 2.57426 27.7118 2.52397C26.09 2.2413 24.6167 2.08073 23.2775 2.02563C21.2747 10.5376 25.812 14.7061 23.3709 26.1025C24.4514 26.1312 25.6204 26.0977 26.8805 25.9923C27.271 25.8654 27.6615 25.736 28.0472 25.6018Z" fill="#FDE588"/>
<path fill-rule="evenodd" clip-rule="evenodd" d="M30.8761 24.5334C37.4641 21.8263 42.6339 18.0362 41.9368 14.2462C40.3197 9.70638 35.8662 6.15351 30.6317 3.73145C28.49 7.00636 32.0619 16.5293 30.6604 24.622C30.7324 24.5932 30.8043 24.5645 30.8761 24.5334ZM36.9587 13.4795C36.3813 14.0593 35.4446 14.0593 34.8649 13.4795C34.2876 12.9022 34.2876 11.9654 34.8649 11.3881C35.4446 10.8084 36.3813 10.8084 36.9587 11.3881C37.5384 11.9654 37.5384 12.9022 36.9587 13.4795Z" fill="#FDE588"/>
<path fill-rule="evenodd" clip-rule="evenodd" d="M21.011 25.93C22.5705 19.4689 22.3549 14.6918 21.5476 10.7101C20.7403 6.72606 20.5246 3.42951 20.9247 2.04004C19.2357 2.13587 17.8031 2.42573 16.5862 2.85461C14.1474 11.357 18.7255 16.9294 16.6772 24.852C17.8991 25.3407 19.3316 25.7192 21.011 25.93Z" fill="#FDE588"/>
<path fill-rule="evenodd" clip-rule="evenodd" d="M34.8651 13.4794C35.4449 14.0591 36.3815 14.0591 36.9589 13.4794C37.5386 12.902 37.5386 11.9653 36.9589 11.3879C36.3815 10.8082 35.4449 10.8082 34.8651 11.3879C34.2878 11.9653 34.2878 12.902 34.8651 13.4794Z" fill="#7E707D"/>
<path fill-rule="evenodd" clip-rule="evenodd" d="M16.6775 24.8519C17.2236 23.2252 17.6093 21.0666 17.6285 18.2206C17.6477 15.5397 16.8882 13.7262 16.5673 12.1115C16.0474 9.49779 15.8774 6.61102 16.5865 2.85449C15.5108 3.23063 14.6029 3.71697 13.8362 4.27278C12.5282 13.446 16.1983 13.3645 14.5238 23.7619C15.1586 24.1619 15.8725 24.5308 16.6775 24.8519Z" fill="#FE8D94"/>
<path fill-rule="evenodd" clip-rule="evenodd" d="M23.3706 26.1023C26.5832 14.8472 21.9811 10.6667 23.2772 2.02543C22.441 1.99188 21.6577 1.9967 20.9246 2.03979C20.5246 3.42927 20.1532 6.68508 20.9605 10.6691C21.7678 14.6508 22.5704 19.4685 21.0108 25.9297C21.7488 26.0208 22.5346 26.0807 23.3706 26.1023Z" fill="#FE8D94"/>
<path fill-rule="evenodd" clip-rule="evenodd" d="M30.8762 24.5332C37.4643 21.8261 42.634 18.036 41.9369 14.246C41.5488 13.1536 40.9954 12.1186 40.3055 11.1436C40.3438 11.2418 40.3821 11.34 40.4157 11.4382C41.0553 14.9096 36.7743 18.3786 30.9889 21.0187C30.9625 22.2357 30.8643 23.4431 30.6606 24.6218C30.7326 24.593 30.8044 24.5643 30.8762 24.5332Z" fill="#FDD76F"/>
<path fill-rule="evenodd" clip-rule="evenodd" d="M21.011 25.9298C21.1116 25.5201 21.2003 25.1152 21.2816 24.7175C21.3798 24.2312 21.4637 23.7545 21.5379 23.2849C20.8168 23.2585 20.1365 23.2034 19.4921 23.1219C18.68 23.0213 17.9278 22.88 17.2282 22.7075C17.2091 22.8201 17.1851 22.9327 17.1636 23.0429C17.0247 23.7089 16.8594 24.3103 16.6772 24.8517C17.8991 25.3404 19.3316 25.7189 21.011 25.9298Z" fill="#FDD76F"/>
<path fill-rule="evenodd" clip-rule="evenodd" d="M23.3704 26.1023C23.4423 25.8507 23.5094 25.6016 23.5741 25.3572C23.7634 24.6337 23.9215 23.9389 24.0484 23.2705C23.9862 23.2729 23.9215 23.2777 23.8591 23.2801C23.1572 23.3088 22.4889 23.3136 21.8492 23.2968C21.7558 23.2944 21.6624 23.2896 21.5689 23.2872C21.5594 23.2872 21.5474 23.2872 21.5377 23.2849C21.4634 23.7544 21.3796 24.2312 21.2814 24.7175C21.2 25.1152 21.1113 25.5177 21.0131 25.9273L21.0107 25.9297C21.7487 26.0208 22.5344 26.0807 23.3704 26.1023Z" fill="#FF6D75"/>
<path fill-rule="evenodd" clip-rule="evenodd" d="M26.8803 25.992C27.2708 25.865 27.6613 25.7357 28.047 25.6015C28.2961 24.5618 28.4998 23.443 28.6579 22.2859V22.2835C28.6699 22.1877 28.6843 22.0895 28.6938 21.9937C27.9847 22.274 27.2588 22.5399 26.5258 22.7939C26.1401 22.9281 25.7496 23.0598 25.3591 23.1844C24.9111 23.2227 24.475 23.2515 24.0486 23.2706C23.9217 23.939 23.7636 24.6338 23.5743 25.3573C23.5096 25.6017 23.4425 25.8508 23.3706 26.1024C24.451 26.131 25.6201 26.0974 26.8803 25.992Z" fill="#FDD76F"/>
<path fill-rule="evenodd" clip-rule="evenodd" d="M30.6604 24.622C31.1683 23.0217 31.2833 23.4601 31.5396 18.2206C31.7959 12.9836 29.2637 7.07577 30.6317 3.73139C29.81 3.35288 28.9691 3.00074 28.1187 2.67725C27.5772 4.36621 27.3449 6.48878 27.927 9.01632C29.2302 14.7061 29.2997 20.3672 28.0468 25.6017C28.9355 25.2952 29.8099 24.967 30.6604 24.622Z" fill="#FE8D94"/>
<path fill-rule="evenodd" clip-rule="evenodd" d="M30.6605 24.622C31.0606 23.3571 31.2187 23.3643 31.3936 20.832C30.7324 21.1411 30.0521 21.4406 29.3573 21.7256C29.283 21.7568 29.2112 21.7855 29.1393 21.8143C28.9907 21.8742 28.8446 21.934 28.6937 21.9939C28.5451 23.2157 28.3296 24.4208 28.0469 25.6019C28.9356 25.2953 29.81 24.9671 30.6605 24.622Z" fill="#FF6D75"/>
<path fill-rule="evenodd" clip-rule="evenodd" d="M14.5238 23.7618C14.6316 23.0958 14.7154 22.4753 14.7825 21.8907C14.1285 21.6056 13.5368 21.2918 13.0026 20.954C11.376 19.9287 10.2667 18.6997 9.48096 17.5449C10.1685 19.0327 11.3807 21.7782 14.5238 23.7618Z" fill="#FDD76F"/>
<path fill-rule="evenodd" clip-rule="evenodd" d="M16.6771 24.8518C16.8591 24.3103 17.0245 23.709 17.1635 23.043C17.185 22.9328 17.209 22.8202 17.2281 22.7076C17.1825 22.6956 17.1371 22.6836 17.0915 22.674C16.5956 22.547 16.1285 22.4033 15.6853 22.2452C15.5057 22.1806 15.3284 22.1135 15.1559 22.0464C15.0672 22.0105 14.981 21.9745 14.8924 21.9362C14.8565 21.9218 14.8181 21.905 14.7822 21.8906C14.7151 22.4752 14.6313 23.0957 14.5234 23.7617C15.1583 24.1618 15.8722 24.5307 16.6771 24.8518Z" fill="#FF6D75"/>
<path fill-rule="evenodd" clip-rule="evenodd" d="M6.51025 14.8066H9.48086V17.5449H6.51025V14.8066Z" fill="#D9EEFF"/>
<path d="M3.6235 13.3618C3.52631 13.6136 3.28631 13.7683 3.03194 13.7683C2.95589 13.7683 2.87899 13.7548 2.80377 13.726L0.0420701 12.6621C-0.00947944 12.1888 -0.0111696 11.746 0.0234785 11.3345C0.0919295 11.3362 0.161226 11.3497 0.228832 11.3759L3.25927 12.5429C3.58631 12.6688 3.74857 13.0356 3.6235 13.3618Z" fill="#75CEF9"/>
<path d="M3.2145 16.9517L0.184067 17.8644C0.123222 17.883 0.0615312 17.8915 0.000685832 17.8915C-0.00522969 17.4765 0.0268831 17.0346 0.10632 16.5639L2.84859 15.7382C3.18408 15.6368 3.53732 15.827 3.63873 16.1616C3.7393 16.4971 3.55 16.8503 3.2145 16.9517Z" fill="#75CEF9"/>
</svg>
