<svg width="55" height="55" viewBox="0 0 55 55" fill="none" xmlns="http://www.w3.org/2000/svg">
<path d="M13.4761 0H41.5239V8.90737H13.4761V0Z" fill="#DB3328"/>
<path d="M13.4761 0H34.8735V8.90737H13.4761V0Z" fill="#E67368"/>
<path d="M41.524 4.8208H13.4762L7.66943 41.776H35.7172L41.524 4.8208Z" fill="#DB3328"/>
<path d="M31.7399 24.7063L34.8733 4.8208H13.4759L8.80859 34.512H20.2797C25.9988 34.512 30.8524 30.3596 31.7399 24.7063Z" fill="#E67368"/>
<path d="M47.3308 41.776H35.7173L41.5241 4.8208L47.3308 41.776Z" fill="#B5100B"/>
<path d="M47.3308 41.776H35.7173L41.5241 31.8826L47.3308 41.776Z" fill="#DB3328"/>
<path d="M31.5539 7.66943C29.7352 7.66943 28.2671 9.13756 28.2671 10.9563V14.2431C28.2671 15.3935 29.1984 16.3248 30.3488 16.3248L29.8667 28.5957C29.8338 29.5489 30.5898 30.3487 31.5539 30.3487C32.5071 30.3487 33.2741 29.5489 33.2412 28.5957L32.7591 16.3248C33.9095 16.3248 34.8408 15.3935 34.8408 14.2431V10.9563C34.8408 9.13756 33.3727 7.66943 31.5539 7.66943Z" fill="#EBEADF"/>
<path d="M22.8985 7.71326V13.038H21.8029V7.66943H20.7073V13.038H19.6117V7.71326C18.6256 7.91047 17.9683 8.74314 17.9683 9.75111V14.2431C17.9683 15.3935 18.8995 16.3248 20.0499 16.3248L19.5679 28.5957C19.535 29.5489 20.291 30.3487 21.2551 30.3487C22.2193 30.3487 22.9752 29.5489 22.9424 28.5957L22.4603 16.3248C23.6107 16.3248 24.542 15.3935 24.542 14.2431V9.75111C24.542 8.75409 23.8846 7.92143 22.8985 7.71326Z" fill="#EBEADF"/>
<path d="M26.5908 41.743L36.2213 38.5438L36.8568 34.49L21.0908 41.743H26.5908Z" fill="#B5100B"/>
<path d="M52.0966 41.031L44.5259 47.7581L30.5677 51.6804H21.1016H7.66932L0 55.0001V42.1814L7.66932 38.8945L12.8297 36.0021C15.3606 34.5887 18.2092 33.8437 21.1016 33.8437L34.5229 32.2222C36.002 32.0469 37.3058 33.1973 37.3058 34.6874C37.3058 35.7611 36.6155 36.7142 35.5966 37.0429L21.1016 41.776H37.2839L46.2898 37.5798L46.5528 37.0539C48.1743 33.8766 51.4392 31.8826 55 31.8826L52.0966 41.031Z" fill="#F9DBBF"/>
<path d="M21.0908 41.7759L35.5858 37.0428C36.6048 36.7141 37.295 35.761 37.295 34.6873L26.7442 36.6594C24.9255 36.999 23.3368 38.0946 22.3617 39.6833L21.0908 41.7759Z" fill="#F7C8A9"/>
<path d="M7.66943 51.7131C13.4543 49.1603 19.6993 47.8346 26.021 47.8236L44.526 47.7908L30.5678 51.7131H7.66943Z" fill="#F7C8A9"/>
</svg>
