<svg width="44" height="44" viewBox="0 0 44 44" fill="none" xmlns="http://www.w3.org/2000/svg">
<path d="M18.8773 25.1451L36.0432 19.5755L40.0622 18.5287C42.8985 29.3962 36.3781 40.5033 25.4984 43.337C14.6187 46.1707 3.49976 39.6581 0.663395 28.7905C-2.17297 17.923 4.34753 6.81594 15.2272 3.98224C18.7372 3.06806 22.2721 3.12658 25.5457 3.99038L24.4936 7.98322L18.8773 25.1451Z" fill="#F5A26A"/>
<path d="M36.043 19.5756C36.3819 20.8803 36.5622 22.249 36.5622 23.6597C36.5622 32.6065 29.3094 39.8592 20.3627 39.8592C11.416 39.8592 4.16309 32.6065 4.16309 23.6597C4.16309 14.7129 11.4158 7.46021 20.3626 7.46021C21.7293 7.46021 23.2256 7.66471 24.4934 7.98342L20.3626 23.6598L36.043 19.5756Z" fill="#FFDB63"/>
<path d="M20.9523 7.98342L16.5605 24.6501L20.3628 23.6598L24.4936 7.98342C23.2258 7.6648 21.7294 7.46021 20.3628 7.46021C19.7551 7.46021 19.1557 7.49482 18.5653 7.55998C19.3914 7.65019 20.211 7.79707 20.9523 7.98342Z" fill="#FFD033"/>
<path d="M36.0432 19.5757L32.701 20.4462C32.9101 21.485 33.0212 22.5594 33.0212 23.6598C33.0212 32.0081 26.7059 38.8805 18.5923 39.7626C19.1739 39.8258 19.7644 39.8593 20.3629 39.8593C29.3097 39.8593 36.5624 32.6065 36.5624 23.6598C36.5623 22.2491 36.382 20.8805 36.0432 19.5757Z" fill="#FFD033"/>
<path d="M44 14.3217C42.186 7.49177 36.7138 1.93219 29.9171 0L24.3242 19.5566L44 14.3217Z" fill="#F5A26A"/>
<path d="M30.2673 4.54575C29.8069 4.36418 29.3431 4.20517 28.8772 4.06813L28.7592 4.04883L24.3242 19.5565L39.9653 15.3951C38.6734 10.6223 35.2207 6.49919 30.2673 4.54575Z" fill="#FFDB63"/>
<path d="M36.3918 16.3457L39.965 15.3951C38.6731 10.6223 35.2203 6.49919 30.2669 4.54575C29.8065 4.36418 29.3428 4.20517 28.8768 4.06813L28.7588 4.04883L28.1318 6.24121C32.2954 8.35454 35.2058 12.0852 36.3918 16.3457Z" fill="#FFD033"/>
<path d="M10.6913 20.2627C11.9706 20.2333 12.9838 19.1735 12.9544 17.8957C12.925 16.6178 11.8642 15.6058 10.5849 15.6352C9.30561 15.6646 8.29238 16.7244 8.32177 18.0022C8.35116 19.2801 9.41204 20.2921 10.6913 20.2627Z" fill="#F54C5A"/>
<path d="M12.1528 33.7317C13.432 33.7023 14.4453 32.6426 14.4159 31.3647C14.3865 30.0868 13.3256 29.0748 12.0463 29.1042C10.767 29.1336 9.75381 30.1934 9.78321 31.4712C9.81261 32.7491 10.8735 33.7611 12.1528 33.7317Z" fill="#F54C5A"/>
<path d="M33.3846 20.2678C33.7073 21.5043 32.9654 22.7681 31.7276 23.0905C30.4897 23.413 29.2246 22.672 28.9019 21.4355" fill="#F54C5A"/>
<path d="M27.0077 35.4263C28.287 35.3969 29.3002 34.3371 29.2708 33.0593C29.2414 31.7814 28.1806 30.7694 26.9013 30.7988C25.622 30.8282 24.6088 31.888 24.6382 33.1658C24.6676 34.4437 25.7285 35.4557 27.0077 35.4263Z" fill="#F54C5A"/>
<path d="M21.9307 17.6293C20.8549 17.6866 19.851 16.984 19.5686 15.9021C19.2459 14.6655 19.9878 13.4018 21.2257 13.0793C21.8446 12.9181 22.4703 13.0228 22.9817 13.3223" fill="#F54C5A"/>
<path d="M16.2973 15.0318C16.0694 15.0318 15.8476 14.9144 15.724 14.7036L14.046 11.8425C13.8604 11.5262 13.9665 11.1194 14.2828 10.9339C14.5991 10.7484 15.0059 10.8544 15.1915 11.1707L16.8695 14.0317C17.055 14.3481 16.949 14.7549 16.6327 14.9404C16.5271 15.0024 16.4114 15.0318 16.2973 15.0318Z" fill="#81CDA1"/>
<path d="M15.4543 23.401C15.2694 23.401 15.0857 23.3243 14.9544 23.1743C14.7128 22.8983 14.7408 22.4789 15.0168 22.2374L17.5139 20.0523C17.7898 19.8107 18.2093 19.8387 18.4508 20.1147C18.6923 20.3907 18.6643 20.8102 18.3884 21.0517L15.8913 23.2367C15.7654 23.3469 15.6095 23.401 15.4543 23.401Z" fill="#81CDA1"/>
<path d="M19.7227 37.1854C19.4323 37.1854 19.1656 36.9935 19.0836 36.7002L18.1898 33.5067C18.091 33.1536 18.2971 32.7872 18.6502 32.6883C19.0032 32.5894 19.3697 32.7956 19.4686 33.1488L20.3624 36.3423C20.4612 36.6954 20.2551 37.0618 19.902 37.1607C19.8421 37.1774 19.7819 37.1854 19.7227 37.1854Z" fill="#81CDA1"/>
<path d="M24.0779 27.0796C23.7337 27.0796 23.4427 26.8141 23.4165 26.4653C23.3889 26.0997 23.6631 25.781 24.0288 25.7534L27.3392 25.5043C27.7058 25.4768 28.0236 25.751 28.0511 26.1167C28.0787 26.4824 27.8045 26.8011 27.4388 26.8287L24.1284 27.0777C24.1114 27.079 24.0946 27.0796 24.0779 27.0796Z" fill="#81CDA1"/>
<path d="M20.8251 30.0137C20.7027 30.0137 20.5788 29.9799 20.468 29.909L17.6724 28.1208C17.3636 27.9232 17.2733 27.5126 17.4709 27.2037C17.6685 26.8948 18.0791 26.8045 18.388 27.0022L21.1836 28.7904C21.4925 28.988 21.5827 29.3986 21.3851 29.7075C21.2584 29.9054 21.0441 30.0137 20.8251 30.0137Z" fill="#81CDA1"/>
<path d="M8.13109 26.0019C7.78697 26.0019 7.49588 25.7364 7.46968 25.3877C7.44215 25.022 7.71633 24.7033 8.08205 24.6757L11.3924 24.4267C11.7587 24.3994 12.0767 24.6734 12.1044 25.039C12.1319 25.4047 11.8577 25.7234 11.492 25.751L8.18165 26.0001C8.16465 26.0012 8.14774 26.0019 8.13109 26.0019Z" fill="#81CDA1"/>
<path d="M31.2113 29.4947C31.0853 29.4947 30.9578 29.4588 30.845 29.384C30.5394 29.1814 30.4559 28.7693 30.6585 28.4636L32.4916 25.699C32.6944 25.3933 33.1063 25.3099 33.412 25.5125C33.7176 25.7152 33.8011 26.1272 33.5985 26.4329L31.7653 29.1975C31.6375 29.3903 31.4264 29.4947 31.2113 29.4947Z" fill="#81CDA1"/>
<path d="M32.5589 11.9139C32.2794 11.9139 32.0193 11.7359 31.9278 11.4558L30.8982 8.30241C30.7844 7.95377 30.9747 7.57893 31.3233 7.46508C31.6718 7.35132 32.0468 7.54157 32.1606 7.89012L33.1902 11.0435C33.3041 11.3921 33.1137 11.7669 32.7651 11.8807C32.6966 11.9032 32.6272 11.9139 32.5589 11.9139Z" fill="#81CDA1"/>
<path d="M27.3552 9.18164C28.584 9.53249 29.2949 10.814 28.9431 12.0438C28.5913 13.2735 27.3099 13.9862 26.0811 13.6353" fill="#F54C5A"/>
<path d="M32.8609 17.0453C32.3301 16.1077 32.5115 14.8959 33.3543 14.1608C34.3173 13.3209 35.7793 13.4217 36.6196 14.3861C37.0398 14.8683 37.225 15.4751 37.1848 16.0663" fill="#F54C5A"/>
<path d="M23.7392 37.8186C23.91 37.8186 23.9104 37.553 23.7392 37.553C23.5682 37.553 23.5679 37.8186 23.7392 37.8186Z" fill="#060606"/>
</svg>
